<svg width="763" height="691" viewBox="0 0 763 691" fill="none" xmlns="http://www.w3.org/2000/svg">
<path d="M420.466 685.188V633.415C420.46 630.771 419.934 628.155 418.916 625.718C417.899 623.281 416.411 621.07 414.538 619.215C410.73 615.443 405.597 613.331 400.251 613.337H348.241C330.823 613.327 314.11 606.42 301.721 594.111C295.632 588.057 290.795 580.85 287.49 572.907C284.184 564.964 282.476 556.442 282.462 547.832V453.267C282.462 435.881 289.401 419.237 301.721 406.96C314.11 394.651 330.823 387.744 348.241 387.734H400.251C405.597 387.74 410.73 385.628 414.538 381.856C416.412 380.006 417.903 377.801 418.926 375.369C419.948 372.936 420.48 370.324 420.493 367.684V315.856C420.493 298.498 427.431 281.853 439.751 269.576C452.141 257.267 468.854 250.36 486.271 250.35H581.278C598.761 250.35 615.506 257.244 627.853 269.521C640.2 281.826 647.139 298.498 647.139 315.856V367.656C647.139 372.957 649.269 378.093 653.039 381.829C656.837 385.599 661.961 387.711 667.298 387.706H719.746L730.045 373.259C751.203 335.65 762.255 293.148 762.111 249.939C761.967 206.73 750.633 164.303 729.225 126.837C707.709 89.2281 676.904 57.8388 639.791 35.7055C602.528 13.4796 560.231 1.20712 516.921 0.0549315H499.438C424.044 2.52685 366.761 26.834 319.285 82.974C317.231 85.4292 314.643 87.3754 311.72 88.6615C308.797 89.9476 305.618 90.539 302.431 90.3897C299.258 90.2469 296.159 89.3817 293.367 87.8592C290.575 86.3367 288.164 84.1967 286.314 81.6007C249.573 31.1736 188.029 1.53808 106.817 0H98.1301C45.0344 0.329842 -6.61852 17.4109 -49.5433 48.8341C-86.2042 75.6895 -114.902 112.073 -132.558 154.083C-150.143 195.977 -155.954 241.921 -149.358 286.907C-142.73 331.952 -123.969 374.314 -95.1074 409.404L267.001 849.543C285.03 870.938 324.53 871.296 342.75 849.543L411.697 767.036C415.521 762.394 423.334 753.11 429.863 743.195L439.478 731.605C433.425 725.504 428.631 718.259 425.373 710.289C422.115 702.318 420.456 693.778 420.493 685.16L420.466 685.188Z" fill="#1F2937" fill-opacity="0.75"/>
<path d="M458.683 712.635C466.004 719.886 475.919 724.006 486.272 724.006L486.245 723.951H581.307C591.629 723.992 601.548 719.924 608.897 712.635C612.524 709.051 615.404 704.776 617.369 700.06C619.334 695.345 620.345 690.282 620.342 685.169V633.396C620.342 620.982 625.287 609.117 634.082 600.328C642.878 591.538 654.843 586.595 667.299 586.595H719.338C729.66 586.636 739.579 582.568 746.927 575.279C750.557 571.697 753.439 567.422 755.404 562.706C757.369 557.99 758.379 552.927 758.373 547.813V453.221C758.373 442.921 754.248 433.061 746.927 425.755C739.606 418.504 729.663 414.384 719.338 414.384H667.299C654.843 414.384 642.906 409.468 634.082 400.707C625.259 391.945 620.342 380.025 620.342 367.665V315.865C620.342 305.565 616.217 295.705 608.897 288.399C601.576 281.121 591.66 277.028 581.307 277.028H486.272C475.919 277.056 466.004 281.148 458.71 288.399C451.389 295.705 447.292 305.593 447.292 315.865V367.693C447.273 373.847 446.045 379.937 443.678 385.612C441.31 391.287 437.85 396.435 433.497 400.761C424.627 409.522 412.686 414.425 400.253 414.412H348.242C337.889 414.439 327.973 418.532 320.679 425.81C313.359 433.089 309.261 442.976 309.261 453.276V547.813C309.262 552.921 310.269 557.977 312.224 562.692C314.179 567.406 317.043 571.684 320.652 575.279C328.011 582.555 337.921 586.629 348.242 586.622H400.253C412.706 586.604 424.663 591.53 433.524 600.328C442.32 609.117 447.292 621.009 447.292 633.424V685.197C447.291 690.3 448.298 695.353 450.253 700.063C452.209 704.773 455.074 709.046 458.683 712.635Z" fill="#1F2937" fill-opacity="0.75"/>
</svg>
