<svg width="154" height="30" viewBox="0 0 154 30" fill="none" xmlns="http://www.w3.org/2000/svg">
<path d="M74.3114 17.3638H84.2773C84.3966 17.3634 84.5115 17.3183 84.5995 17.2374C84.6876 17.1566 84.7426 17.0456 84.7538 16.9262C84.7754 16.6395 84.7951 16.2529 84.7951 15.8842C84.7951 10.8485 81.7948 7.85543 76.9168 7.85543C72.837 7.85543 69.0714 11.0673 69.0714 16.1058C69.0714 21.3612 72.9327 24.4467 77.2741 24.4467C80.3823 24.4467 82.5854 23.0671 83.7634 21.1763C84.0044 20.7944 84.2051 20.3899 84.3636 19.9674L84.3758 19.924C84.5006 19.5091 84.5821 19.0819 84.6178 18.65C84.6245 18.5836 84.6175 18.5164 84.5971 18.4528C84.5768 18.3893 84.5435 18.3306 84.4994 18.2806C84.4553 18.2306 84.4014 18.1904 84.3411 18.1624C84.2807 18.1345 84.2153 18.1194 84.1488 18.1182H80.8569C80.7683 18.1113 80.6798 18.1321 80.6035 18.1776C80.5271 18.2232 80.4665 18.2913 80.4301 18.3728L80.4189 18.4105C80.3596 18.611 80.2797 18.8047 80.1807 18.9886C79.9778 19.3169 79.7095 19.5994 79.3928 19.8184C78.7779 20.2177 78.0552 20.416 77.3238 20.3861C75.6816 20.3861 74.2373 19.412 73.8471 17.9786C73.8145 17.8702 73.8216 17.7537 73.867 17.6501C73.9124 17.5465 73.9932 17.4627 74.0947 17.4137C74.1618 17.3806 74.2366 17.3635 74.3114 17.3638ZM73.985 13.6474C74.3311 12.6412 75.3111 11.6341 76.9862 11.6341C78.8939 11.6341 79.7867 12.6516 80.0559 13.6851C80.0849 13.792 80.0753 13.9058 80.029 14.0064C79.9827 14.107 79.9025 14.1879 79.8027 14.2349C79.7362 14.2667 79.6634 14.2828 79.5898 14.282H74.4398C74.3248 14.282 74.2136 14.2407 74.1262 14.1655C74.0388 14.0903 73.9811 13.9861 73.9634 13.8718C73.9528 13.7963 73.9596 13.7193 73.985 13.6474ZM43.1426 23.515V8.81918C43.1443 8.6926 43.1954 8.57176 43.2849 8.48269C43.3743 8.39362 43.495 8.34344 43.6209 8.34296H47.2524C47.379 8.34296 47.5009 8.39388 47.59 8.48253C47.6801 8.57211 47.7307 8.69282 47.7307 8.81918V8.84936C47.7308 8.94177 47.7579 9.03213 47.8086 9.10923C47.8593 9.18633 47.9313 9.2468 48.0158 9.28314C48.1006 9.32029 48.1943 9.33213 48.2856 9.31725C48.3768 9.30236 48.462 9.26139 48.5307 9.19921C49.5904 8.35238 50.9006 7.88513 52.2541 7.87146C54.2106 7.87146 55.684 8.56268 56.5562 9.75936C56.5985 9.81972 56.6542 9.86944 56.7188 9.90461C56.7834 9.93978 56.8552 9.95946 56.9286 9.9621C57.002 9.96495 57.0751 9.95097 57.1424 9.92124C57.2096 9.89151 57.2693 9.8468 57.3169 9.79048C58.4751 8.42123 59.8867 7.87146 61.7774 7.87146C64.7505 7.87146 67.597 9.60188 67.597 13.8445V23.5075C67.5966 23.5698 67.584 23.6315 67.5598 23.6889C67.5357 23.7464 67.5005 23.7985 67.4563 23.8422C67.3663 23.9313 67.245 23.9811 67.1187 23.9809H63.4234C63.2977 23.9808 63.1771 23.931 63.0877 23.8422C63.0435 23.7985 63.0085 23.7464 62.9845 23.6889C62.9605 23.6315 62.9481 23.5698 62.9479 23.5075V14.9233C62.9479 13.4437 62.1479 12.2791 60.4475 12.2791C58.7471 12.2791 57.8233 13.5691 57.8233 14.9553V23.515C57.823 23.5775 57.8104 23.6394 57.7863 23.697C57.7622 23.7546 57.7269 23.8068 57.6826 23.8507C57.5926 23.9398 57.4713 23.9896 57.345 23.9893H53.5531C53.4273 23.9888 53.3068 23.9387 53.2174 23.8498C53.173 23.8061 53.1378 23.754 53.1136 23.6966C53.0895 23.6391 53.0769 23.5774 53.0767 23.515V14.9233C53.0767 13.4437 52.2767 12.2791 50.5463 12.2791C48.8674 12.2791 47.9455 13.5691 47.9455 14.9864V23.515C47.9452 23.5775 47.9326 23.6394 47.9085 23.697C47.8843 23.7546 47.8491 23.8068 47.8048 23.8507C47.7147 23.9397 47.5935 23.9895 47.4672 23.9893H43.6209C43.4946 23.9895 43.3734 23.9397 43.2833 23.8507C43.2389 23.8069 43.2037 23.7546 43.1795 23.697C43.1554 23.6394 43.1428 23.5775 43.1426 23.515ZM102.952 21.1886C102.952 22.1674 102.998 22.9681 103.036 23.4811C103.041 23.5466 103.033 23.6126 103.011 23.6746C102.989 23.7367 102.955 23.7934 102.91 23.8413C102.865 23.8892 102.811 23.9271 102.75 23.9526C102.69 23.9781 102.625 23.9906 102.56 23.9893H98.8765C98.7605 23.9892 98.6484 23.9466 98.5613 23.8696C98.4742 23.7926 98.4179 23.6863 98.4028 23.5706V23.5452C98.3937 23.4603 98.3619 23.3795 98.3107 23.3114C98.2595 23.2433 98.1908 23.1905 98.1121 23.1586C98.033 23.1258 97.9466 23.1149 97.8619 23.1268C97.7772 23.1388 97.6972 23.1731 97.63 23.2264C96.7906 23.896 95.5479 24.3354 94.128 24.3354C89.6983 24.3354 86.3454 20.9349 86.3454 16.1199C86.3454 11.4615 89.5089 7.95727 93.9704 7.95727C95.6895 7.95727 96.7906 8.36937 97.4584 8.82484C97.5124 8.86238 97.5734 8.88841 97.6378 8.90131C97.7021 8.9142 97.7684 8.9137 97.8326 8.89983C97.8968 8.88595 97.9574 8.859 98.0108 8.82064C98.0642 8.78228 98.1092 8.73332 98.1431 8.67679C98.1877 8.60126 98.2104 8.51471 98.2087 8.42689V1.65798C98.2104 1.5314 98.2615 1.41057 98.351 1.32149C98.4404 1.23242 98.5611 1.18224 98.687 1.18176H102.476C102.603 1.18176 102.724 1.23268 102.814 1.32227C102.903 1.41091 102.954 1.53256 102.954 1.65798L102.952 21.1886ZM94.7273 20.0551C96.5937 20.0551 98.2706 18.7311 98.2706 16.1511C98.2706 13.538 96.5946 12.2791 94.7273 12.2791C92.8609 12.2791 91.1821 13.538 91.1821 16.1511C91.1821 18.7311 92.859 20.0551 94.7273 20.0551ZM112.408 12.8487V23.5141C112.407 23.6401 112.356 23.7603 112.267 23.8489C112.177 23.9374 112.057 23.9872 111.932 23.9875H108.077C108.015 23.988 107.953 23.9761 107.896 23.9525C107.838 23.929 107.785 23.8942 107.741 23.8503C107.697 23.8063 107.662 23.7539 107.638 23.6962C107.613 23.6385 107.601 23.5766 107.601 23.5141V12.8487C107.601 12.7857 107.589 12.7233 107.564 12.6652C107.54 12.607 107.505 12.5543 107.461 12.51C107.416 12.4656 107.363 12.4307 107.305 12.4071C107.247 12.3835 107.185 12.3717 107.122 12.3724H105.579C105.516 12.3732 105.454 12.3614 105.396 12.3378C105.338 12.3142 105.285 12.2792 105.24 12.2349C105.196 12.1906 105.161 12.1378 105.137 12.0797C105.112 12.0216 105.1 11.9592 105.1 11.8962V8.81918C105.1 8.75621 105.112 8.69384 105.137 8.63569C105.161 8.57755 105.196 8.52479 105.24 8.48048C105.285 8.43617 105.338 8.4012 105.396 8.37759C105.454 8.35398 105.516 8.34221 105.579 8.34296H107.131C107.257 8.34297 107.378 8.29308 107.467 8.2041C107.557 8.11513 107.608 7.99425 107.609 7.86768V6.98974C107.609 3.40632 109.792 0.945066 113.611 0.945066C114.268 0.929784 114.925 1.00433 115.562 1.16667C115.658 1.19725 115.741 1.25767 115.8 1.33911C115.858 1.42055 115.89 1.51873 115.889 1.61932V4.61808C115.89 4.72012 115.858 4.81982 115.798 4.90191C115.738 4.984 115.652 5.04396 115.555 5.07261C115.49 5.09271 115.422 5.09882 115.355 5.09053C115.06 5.05386 114.762 5.03654 114.464 5.03866C113.611 5.03866 112.408 5.41586 112.408 7.14723V7.86768C112.408 7.93032 112.42 7.99235 112.444 8.05015C112.468 8.10795 112.504 8.16037 112.548 8.20434C112.638 8.29331 112.759 8.34309 112.886 8.34296H115.349C115.474 8.34394 115.594 8.39433 115.683 8.48335C115.772 8.57237 115.823 8.69293 115.825 8.81918V11.8972C115.823 12.0234 115.772 12.144 115.683 12.233C115.594 12.322 115.474 12.3724 115.349 12.3734H112.886C112.759 12.3732 112.638 12.423 112.548 12.512C112.504 12.556 112.468 12.6084 112.444 12.6662C112.42 12.724 112.408 12.786 112.408 12.8487ZM118.576 23.515V1.67213C118.577 1.54556 118.628 1.42458 118.717 1.33543C118.807 1.24628 118.927 1.19615 119.053 1.19591H122.906C123.033 1.19591 123.155 1.24683 123.245 1.33641C123.289 1.38027 123.324 1.43254 123.348 1.49017C123.372 1.5478 123.384 1.60965 123.384 1.67213V23.515C123.384 23.5776 123.372 23.6395 123.348 23.6971C123.324 23.7548 123.288 23.807 123.244 23.8507C123.154 23.9398 123.032 23.9896 122.906 23.9893H119.053C118.928 23.9891 118.807 23.9392 118.718 23.8505C118.629 23.7617 118.578 23.6412 118.576 23.515ZM128.102 29.3362L131.303 22.0826C131.332 22.0202 131.347 21.9521 131.347 21.8831C131.347 21.8142 131.332 21.7461 131.303 21.6837L125.121 9.02664C125.085 8.95537 125.067 8.87584 125.07 8.79574C125.073 8.71563 125.097 8.63764 125.138 8.56928C125.18 8.50051 125.238 8.44342 125.307 8.40335C125.377 8.36328 125.455 8.34153 125.535 8.34013H129.843C129.934 8.34044 130.023 8.36676 130.099 8.41601C130.176 8.46526 130.237 8.53543 130.276 8.61832L133.521 15.7173C133.56 15.8023 133.622 15.8739 133.701 15.9233C133.78 15.9726 133.872 15.9974 133.965 15.9945C134.057 15.9926 134.147 15.964 134.224 15.9121C134.3 15.8603 134.36 15.7874 134.397 15.7022L137.338 8.63624C137.375 8.5496 137.436 8.47574 137.515 8.42378C137.593 8.37182 137.684 8.34405 137.778 8.3439H141.817C141.896 8.34412 141.974 8.36403 142.044 8.40187C142.114 8.43971 142.173 8.4943 142.217 8.5608C142.26 8.6272 142.286 8.70345 142.292 8.78254C142.299 8.86163 142.285 8.94103 142.253 9.01344L132.997 29.7172C132.96 29.8022 132.899 29.8743 132.821 29.9247C132.744 29.975 132.653 30.0012 132.561 30.0001H128.536C128.458 29.9988 128.381 29.9785 128.312 29.9407C128.243 29.9029 128.184 29.8488 128.14 29.7832C128.098 29.7176 128.072 29.6425 128.066 29.5645C128.059 29.4866 128.071 29.4081 128.102 29.3362ZM151.409 8.33919H153.521C153.648 8.33918 153.768 8.3892 153.858 8.47838C153.948 8.56755 153.999 8.68867 154 8.81541V12.0499C153.999 12.1767 153.948 12.2978 153.858 12.387C153.768 12.4761 153.648 12.5261 153.521 12.5261H151.409C151.347 12.5254 151.285 12.5372 151.227 12.5608C151.168 12.5844 151.116 12.6194 151.071 12.6637C151.027 12.708 150.991 12.7607 150.967 12.8189C150.943 12.877 150.931 12.9394 150.931 13.0024V18.3775C150.931 19.6694 151.627 20.0155 152.672 20.0155C152.913 20.0136 153.153 19.9957 153.391 19.9589C153.493 19.9443 153.597 19.963 153.687 20.0123C153.778 20.0615 153.85 20.1387 153.894 20.2324C153.922 20.2937 153.936 20.3616 153.936 20.4295V23.5056C153.936 23.6046 153.906 23.7013 153.848 23.782C153.791 23.8626 153.71 23.9233 153.617 23.9554C152.912 24.1793 152.176 24.2844 151.437 24.2666C148.178 24.2666 146.185 22.3447 146.185 19.2272V13.0061C146.184 12.8796 146.133 12.7586 146.044 12.6694C145.955 12.5803 145.834 12.5302 145.708 12.5299H143.879C143.753 12.5299 143.632 12.48 143.543 12.3911C143.453 12.3021 143.402 12.1812 143.401 12.0546V8.81918C143.401 8.69218 143.451 8.57041 143.54 8.4797C143.63 8.39018 143.752 8.33977 143.879 8.33919H144.193C145.837 8.33919 146.628 7.23587 146.628 5.7893V4.25031C146.628 4.18734 146.64 4.12497 146.664 4.06682C146.688 4.00868 146.724 3.95592 146.768 3.91161C146.813 3.8673 146.865 3.83233 146.924 3.80872C146.982 3.78511 147.044 3.77334 147.106 3.77409H150.453C150.515 3.77334 150.577 3.78511 150.636 3.80872C150.694 3.83233 150.746 3.8673 150.791 3.91161C150.835 3.95592 150.871 4.00868 150.895 4.06682C150.919 4.12497 150.931 4.18734 150.931 4.25031V7.86391C150.931 7.92681 150.943 7.98907 150.968 8.04711C150.992 8.10514 151.027 8.15779 151.071 8.202C151.116 8.24621 151.169 8.2811 151.227 8.30465C151.285 8.3282 151.347 8.33994 151.409 8.33919Z" fill="#F3F4F6"/>
<path d="M19.655 23.5252V21.7476C19.6548 21.6569 19.6367 21.5671 19.6018 21.4834C19.5669 21.3997 19.5158 21.3238 19.4515 21.2601C19.3207 21.1306 19.1445 21.0581 18.961 21.0583H17.1752C16.5772 21.058 16.0034 20.8208 15.578 20.3982C15.369 20.1903 15.2029 19.9429 15.0894 19.6702C14.9759 19.3975 14.9173 19.1049 14.9168 18.8092V15.5625C14.9168 14.9655 15.155 14.3941 15.578 13.9725C16.0034 13.5499 16.5772 13.3128 17.1752 13.3124H18.961C19.1445 13.3126 19.3207 13.2401 19.4515 13.1106C19.5158 13.0471 19.567 12.9714 19.6021 12.8879C19.6372 12.8044 19.6555 12.7147 19.656 12.624V10.8446C19.656 10.2486 19.8942 9.67714 20.3172 9.25562C20.7426 8.83301 21.3164 8.59586 21.9144 8.59551H25.1764C25.7766 8.59551 26.3515 8.83221 26.7754 9.25373C27.1994 9.6762 27.4376 10.2486 27.4376 10.8446V12.6231C27.4376 12.8051 27.5108 12.9814 27.6402 13.1097C27.7706 13.2391 27.9465 13.3117 28.1298 13.3115H29.9305L30.2841 12.8155C31.0105 11.5242 31.39 10.0649 31.385 8.58139C31.3801 7.09785 30.991 5.64118 30.2559 4.35481C29.5172 3.06355 28.4596 1.98584 27.1853 1.22591C25.9059 0.462809 24.4537 0.0414454 22.9667 0.00188602H22.3664C19.7779 0.0867567 17.8111 0.921318 16.1811 2.84883C16.1106 2.93312 16.0217 2.99994 15.9213 3.0441C15.821 3.08826 15.7118 3.10856 15.6024 3.10344C15.4935 3.09853 15.3871 3.06883 15.2912 3.01655C15.1954 2.96428 15.1126 2.89081 15.0491 2.80168C13.7876 1.07031 11.6745 0.0528084 8.8862 0H8.58796C6.76497 0.0113248 4.99152 0.597786 3.51774 1.67667C2.25903 2.59872 1.27372 3.84792 0.667507 5.29027C0.063761 6.72867 -0.135753 8.3061 0.0907066 9.85066C0.318291 11.3972 0.962432 12.8517 1.95335 14.0565L14.386 29.1682C15.005 29.9028 16.3612 29.915 16.9867 29.1682L19.354 26.3354C19.4853 26.176 19.7535 25.8573 19.9776 25.5168L20.3078 25.1189C20.1 24.9094 19.9354 24.6607 19.8235 24.387C19.7116 24.1133 19.6547 23.8201 19.656 23.5243L19.655 23.5252Z" fill="#3B82F6"/>
<path d="M20.9672 24.4676C21.2185 24.7165 21.559 24.858 21.9144 24.858L21.9135 24.8561H25.1773C25.5317 24.8575 25.8723 24.7178 26.1246 24.4676C26.2491 24.3445 26.348 24.1978 26.4155 24.0358C26.483 23.8739 26.5177 23.7001 26.5176 23.5246V21.747C26.5176 21.3208 26.6873 20.9134 26.9893 20.6116C27.2913 20.3099 27.7021 20.1401 28.1298 20.1401H29.9165C30.2709 20.1415 30.6114 20.0019 30.8637 19.7516C30.9883 19.6286 31.0873 19.4819 31.1548 19.3199C31.2222 19.158 31.2569 18.9842 31.2567 18.8086V15.5609C31.2567 15.2072 31.1151 14.8687 30.8637 14.6179C30.6124 14.3689 30.271 14.2275 29.9165 14.2275H28.1298C27.7021 14.2275 27.2923 14.0587 26.9893 13.7578C26.6864 13.457 26.5176 13.0478 26.5176 12.6234V10.8449C26.5176 10.4913 26.3759 10.1527 26.1246 9.90188C25.8732 9.65198 25.5328 9.51147 25.1773 9.51147H21.9144C21.559 9.51242 21.2185 9.65293 20.9681 9.90188C20.7167 10.1527 20.5761 10.4922 20.5761 10.8449V12.6243C20.5754 12.8356 20.5332 13.0447 20.452 13.2396C20.3707 13.4344 20.2519 13.6112 20.1024 13.7597C19.7979 14.0605 19.3879 14.2289 18.961 14.2284H17.1753C16.8198 14.2293 16.4794 14.3698 16.229 14.6197C15.9776 14.8696 15.8369 15.2091 15.8369 15.5628V18.8086C15.8369 18.9839 15.8715 19.1576 15.9386 19.3194C16.0058 19.4813 16.1041 19.6282 16.228 19.7516C16.4807 20.0014 16.8209 20.1413 17.1753 20.1411H18.961C19.3886 20.1404 19.7991 20.3096 20.1034 20.6116C20.4054 20.9134 20.5761 21.3217 20.5761 21.7479V23.5255C20.576 23.7007 20.6106 23.8742 20.6777 24.0359C20.7449 24.1976 20.8432 24.3444 20.9672 24.4676Z" fill="#3B82F6"/>
</svg>
