<svg width="24" height="24" viewBox="0 0 24 24" fill="none" xmlns="http://www.w3.org/2000/svg">
<g clip-path="url(#clip0)">
<path fill-rule="evenodd" clip-rule="evenodd" d="M16.5116 15.7467L15.9223 15.883C15.36 16.0131 14.8126 15.6563 14.6997 15.0861C14.5868 14.5158 14.9511 13.9481 15.5134 13.818L18.4108 13.1477C18.9296 13.0277 19.4438 13.3224 19.6046 13.8321L20.3981 16.3467C20.5724 16.899 20.2707 17.5027 19.7243 17.695C19.1779 17.8872 18.5937 17.5953 18.4194 17.0429L18.3324 16.7673C17.118 18.4178 15.4888 19.4299 14.1662 19.8953C12.522 20.4738 10.1012 20.6489 7.76616 19.4821C5.42395 18.3117 4.09487 16.2023 3.57326 14.5492C3.39895 13.9968 3.70059 13.3932 4.24698 13.2009C4.79337 13.0086 5.3776 13.3006 5.5519 13.853C5.94126 15.0869 6.96018 16.6965 8.71895 17.5753C10.4849 18.4577 12.3235 18.3212 13.535 17.8949C14.4633 17.5683 15.6142 16.8644 16.5116 15.7467ZM8.42312 9.22353C8.98542 9.09344 9.34972 8.52572 9.23683 7.95548C9.12393 7.38524 8.57658 7.02844 8.01429 7.15853L7.42492 7.29488C8.32235 6.17712 9.47327 5.4733 10.4015 5.14665C11.613 4.72034 13.4517 4.58387 15.2176 5.46628C16.9764 6.3451 17.9953 7.95467 18.3847 9.18861C18.559 9.74099 19.1432 10.0329 19.6896 9.84066C20.236 9.64839 20.5376 9.04473 20.3633 8.49235C19.8417 6.83929 18.5126 4.72984 16.1704 3.55948C13.8354 2.39271 11.4145 2.56773 9.77034 3.1463C8.44781 3.61168 6.81859 4.62378 5.60413 6.2743L5.51715 5.99864C5.34285 5.44626 4.75861 5.15433 4.21223 5.34659C3.66584 5.53886 3.3642 6.14252 3.5385 6.6949L4.33197 9.2095C4.49278 9.71914 5.00693 10.0139 5.52571 9.89387L8.42312 9.22353Z" fill="currentColor"/>
</g>
<defs>
<clipPath id="clip0">
<rect width="24" height="24" fill="white"/>
</clipPath>
</defs>
</svg>
