<svg width="24" height="24" viewBox="0 0 24 24" fill="none" xmlns="http://www.w3.org/2000/svg"><path d="M24 12C24 18.6274 18.6274 24 12 24C5.37258 24 0 18.6274 0 12C0 5.37258 5.37258 0 12 0C18.6274 0 24 5.37258 24 12ZM3 12C3 16.9706 7.02944 21 12 21C16.9706 21 21 16.9706 21 12C21 7.02944 16.9706 3 12 3C7.02944 3 3 7.02944 3 12Z" fill-opacity="0.15" fill="currentColor"></path><path d="M24 12C24 14.1064 23.4455 16.1758 22.3923 18C21.3391 19.8242 19.8242 21.3391 18 22.3923C16.1758 23.4455 14.1064 24 12 24C9.89356 24 7.82423 23.4455 6 22.3923L7.5 19.7942C8.86817 20.5841 10.4202 21 12 21C13.5798 21 15.1318 20.5841 16.5 19.7942C17.8682 19.0043 19.0043 17.8682 19.7942 16.5C20.5841 15.1318 21 13.5798 21 12L24 12Z" fill="currentColor"></path></svg>